<?xml version="1.0" standalone="no"?>
<!DOCTYPE svg PUBLIC "-//W3C//DTD SVG 20010904//EN"
 "http://www.w3.org/TR/2001/REC-SVG-20010904/DTD/svg10.dtd">
<svg version="1.0" xmlns="http://www.w3.org/2000/svg"
 width="2080.000000pt" height="2080.000000pt" viewBox="0 0 2080.000000 2080.000000"
 preserveAspectRatio="xMidYMid meet">
<metadata>
Created by potrace 1.14, written by Peter Selinger 2001-2017
</metadata>
<g transform="translate(0.000000,2080.000000) scale(0.100000,-0.100000)"
fill="#000000" stroke="none">
<path d="M16438 14715 c-2 -2 -57 -7 -123 -10 -179 -11 -191 -12 -201 -17 -5
-2 -24 -4 -41 -3 -18 1 -33 -3 -33 -7 0 -5 -4 -7 -9 -4 -5 3 -42 1 -82 -5 -41
-5 -87 -12 -104 -14 -16 -3 -46 -7 -65 -11 -19 -3 -46 -8 -60 -10 -14 -2 -47
-9 -75 -15 -27 -6 -61 -13 -75 -16 -45 -9 -55 -11 -55 -13 0 -1 -9 -3 -20 -5
-37 -6 -80 -16 -100 -22 -11 -4 -25 -8 -32 -9 -6 -1 -58 -17 -115 -34 -57 -18
-107 -33 -113 -34 -5 -1 -14 -4 -20 -7 -17 -11 -120 -43 -127 -41 -5 1 -8 -3
-8 -8 0 -6 -9 -10 -20 -10 -11 0 -20 -4 -20 -10 0 -5 -3 -9 -7 -8 -9 3 -54
-14 -128 -47 -27 -13 -53 -24 -57 -25 -13 -2 -281 -142 -320 -166 -21 -13 -40
-24 -42 -24 -12 0 -309 -192 -326 -210 -3 -3 -30 -23 -60 -45 -30 -22 -60 -44
-66 -50 -7 -5 -29 -23 -50 -40 -71 -57 -139 -120 -254 -236 -117 -118 -125
-127 -195 -214 -22 -27 -43 -52 -46 -55 -13 -12 -139 -181 -179 -240 -24 -36
-47 -66 -52 -68 -4 -2 -8 -7 -8 -12 0 -5 -22 -41 -48 -82 -68 -103 -149 -244
-213 -373 -29 -60 -57 -111 -61 -113 -5 -2 -8 -10 -8 -17 0 -7 -14 -44 -31
-81 -53 -116 -66 -148 -74 -174 -4 -14 -16 -43 -26 -66 -10 -22 -20 -52 -23
-65 -3 -13 -17 -55 -30 -93 -14 -39 -27 -81 -30 -95 -2 -14 -11 -45 -19 -68
-9 -23 -18 -56 -22 -75 -8 -47 -10 -52 -18 -65 -5 -7 -6 -13 -4 -13 3 0 1 -17
-4 -37 -5 -21 -12 -47 -14 -58 -3 -11 -8 -36 -11 -55 -3 -19 -7 -43 -10 -52
-7 -22 -11 -45 -18 -98 -3 -25 -8 -56 -11 -70 -2 -13 -7 -42 -10 -65 -3 -22
-8 -51 -10 -65 -2 -14 -7 -52 -10 -85 -3 -33 -8 -73 -10 -90 -27 -215 -27
-837 0 -1030 2 -16 7 -55 11 -85 9 -80 11 -95 13 -95 1 0 4 -25 7 -55 2 -30 9
-72 15 -93 5 -20 7 -42 4 -47 -3 -6 -1 -10 5 -10 6 0 9 -3 7 -7 -4 -7 20 -133
49 -263 3 -14 7 -32 9 -40 2 -8 4 -16 5 -17 3 -3 4 -7 14 -57 8 -44 15 -42 22
5 2 19 7 57 10 84 4 28 6 60 5 73 0 12 3 22 7 22 4 0 7 12 7 26 -1 22 14 119
31 194 3 14 10 45 15 70 10 49 17 75 19 75 1 0 3 9 5 20 5 31 39 149 46 160 4
6 9 24 13 40 14 56 89 250 104 268 8 9 12 17 8 17 -3 0 1 11 10 25 9 14 14 25
11 25 -3 0 26 58 63 129 71 135 247 411 262 411 4 0 8 5 8 10 0 6 24 41 52 78
29 37 56 72 61 77 103 133 342 381 486 504 46 40 90 79 98 86 8 8 17 15 21 15
4 0 25 16 47 35 22 19 43 35 46 35 3 0 15 8 27 18 11 9 28 23 39 29 10 7 43
30 73 52 113 80 330 206 490 285 52 26 108 54 123 62 16 8 35 14 42 14 7 0 15
4 17 9 2 5 12 11 23 13 11 1 22 5 25 8 10 12 268 108 295 111 6 0 16 5 23 11
6 6 12 7 12 3 0 -4 7 -2 15 5 8 7 15 9 15 5 0 -4 6 -3 13 3 6 5 28 13 47 18
34 7 53 12 75 17 6 1 15 5 20 8 10 6 52 18 94 25 13 3 39 11 58 19 18 8 31 11
29 6 -3 -5 11 -3 32 4 20 7 51 16 67 18 17 3 41 8 55 11 39 9 72 15 105 21 17
3 39 7 51 9 12 2 45 7 74 11 29 4 62 9 74 11 53 12 403 36 511 36 53 0 305
-13 322 -16 12 -3 50 -7 84 -11 35 -4 66 -8 69 -10 4 -2 22 -7 41 -10 65 -10
134 -28 145 -36 6 -5 13 -6 16 -4 11 12 278 -98 286 -117 2 -4 10 -8 17 -8 21
0 165 -111 229 -177 71 -74 168 -207 207 -287 35 -70 95 -245 104 -301 3 -22
8 -69 10 -105 3 -36 7 -77 9 -92 4 -26 2 -28 -33 -26 -21 0 -43 -2 -49 -6 -6
-3 -13 -2 -17 3 -4 7 -15 7 -30 1 -16 -6 -25 -6 -25 1 0 6 -6 6 -18 0 -11 -6
-23 -6 -28 -1 -5 4 -30 5 -56 1 -25 -4 -53 -4 -62 1 -9 5 -17 4 -21 -2 -4 -7
-11 -8 -18 -2 -7 6 -32 7 -59 3 -25 -4 -53 -4 -62 1 -9 5 -17 4 -21 -2 -4 -7
-11 -8 -18 -2 -7 6 -32 7 -59 3 -26 -4 -53 -4 -60 0 -7 4 -18 3 -24 -2 -8 -7
-14 -6 -19 1 -4 6 -14 9 -23 6 -19 -6 -44 -7 -175 -5 -49 0 -91 -2 -94 -5 -3
-3 -13 -1 -22 3 -9 5 -35 6 -58 1 -24 -4 -45 -5 -48 -2 -8 8 -152 5 -166 -4
-8 -5 -10 -3 -4 5 6 10 3 11 -12 2 -11 -6 -23 -7 -27 -4 -7 7 -136 6 -143 -1
-3 -3 -13 -1 -22 3 -9 5 -35 6 -58 1 -24 -4 -45 -5 -48 -2 -8 8 -152 5 -166
-4 -8 -5 -10 -3 -4 5 6 10 3 11 -12 2 -11 -6 -23 -7 -27 -4 -7 7 -136 6 -143
-1 -3 -3 -13 -1 -22 3 -9 5 -35 6 -59 1 -23 -4 -45 -4 -48 1 -2 4 -15 4 -28
-1 -13 -5 -27 -5 -32 0 -5 4 -30 5 -56 1 -25 -4 -53 -4 -62 1 -9 5 -17 4 -21
-2 -4 -7 -11 -8 -18 -1 -7 5 -29 6 -53 2 -22 -4 -49 -4 -60 -1 -10 4 -29 4
-41 -1 -13 -5 -25 -4 -28 2 -4 5 -11 7 -16 3 -5 -3 -53 -7 -107 -9 -109 -4
-225 -13 -262 -20 -14 -2 -50 -7 -80 -10 -30 -3 -62 -8 -70 -10 -8 -2 -31 -7
-50 -10 -19 -3 -46 -8 -60 -10 -14 -3 -34 -7 -45 -9 -11 -2 -46 -11 -77 -19
-31 -8 -59 -12 -62 -9 -3 3 -6 1 -6 -4 0 -5 -9 -10 -21 -11 -23 -2 -225 -68
-279 -92 -19 -8 -37 -15 -40 -16 -3 -1 -22 -9 -44 -18 -21 -9 -42 -17 -47 -17
-5 0 -9 -5 -9 -12 0 -6 -3 -9 -6 -6 -3 3 -44 -15 -92 -40 -48 -25 -97 -50
-109 -56 -13 -6 -23 -14 -23 -18 0 -5 -6 -8 -12 -8 -7 0 -32 -13 -54 -28 -23
-15 -67 -44 -99 -65 -32 -22 -65 -45 -72 -53 -8 -8 -18 -14 -22 -14 -4 0 -16
-8 -27 -18 -10 -9 -54 -46 -96 -82 -43 -35 -78 -68 -78 -72 0 -4 -4 -8 -9 -8
-10 0 -147 -138 -183 -185 -13 -15 -30 -36 -39 -45 -9 -10 -36 -44 -60 -76
-24 -33 -47 -60 -51 -62 -5 -2 -8 -8 -8 -14 0 -6 -13 -27 -30 -48 -16 -21 -30
-42 -30 -47 0 -5 -8 -18 -17 -29 -10 -10 -25 -32 -33 -49 -8 -16 -17 -32 -20
-35 -15 -15 -79 -148 -73 -153 3 -4 2 -7 -4 -7 -5 0 -22 -33 -37 -72 -16 -40
-34 -86 -41 -103 -14 -31 -63 -208 -71 -254 -3 -14 -7 -33 -9 -41 -2 -8 -7
-31 -10 -50 -3 -19 -7 -46 -10 -60 -23 -132 -24 -478 0 -599 2 -10 6 -42 10
-71 4 -29 9 -62 12 -74 3 -12 6 -28 7 -36 1 -8 6 -25 10 -36 3 -12 8 -35 11
-50 3 -28 57 -198 74 -239 5 -11 19 -45 31 -75 22 -54 127 -265 143 -285 4 -5
33 -48 63 -95 122 -185 341 -425 539 -589 120 -100 118 -98 180 -141 28 -19
52 -37 55 -40 3 -3 30 -21 60 -40 30 -19 57 -37 60 -40 7 -9 109 -66 220 -126
30 -16 58 -33 61 -37 3 -5 8 -7 10 -6 2 2 33 -11 69 -28 57 -28 114 -53 130
-58 3 -1 23 -9 45 -19 22 -10 65 -27 95 -38 30 -10 64 -23 75 -28 11 -5 63
-23 115 -40 52 -16 109 -35 125 -41 17 -5 37 -12 45 -14 8 -1 42 -11 75 -21
33 -10 65 -19 70 -20 6 -1 30 -7 55 -14 25 -6 55 -13 67 -15 12 -2 37 -8 55
-14 18 -6 44 -12 58 -15 14 -3 81 -16 150 -31 69 -14 141 -27 160 -30 19 -2
35 -4 35 -5 0 -1 11 -3 25 -5 30 -3 105 -14 140 -20 50 -9 116 -17 165 -20 28
-2 50 -5 50 -5 0 -1 25 -3 55 -5 30 -2 98 -8 150 -12 123 -10 622 -10 769 0
188 13 284 21 386 32 28 3 73 7 100 10 91 8 160 15 190 19 17 3 53 7 80 11 65
8 145 21 200 32 11 2 37 6 58 9 50 8 72 12 72 14 0 1 13 4 28 6 15 1 58 10 95
19 169 39 198 46 217 51 11 3 36 10 55 14 133 32 384 114 495 161 17 7 32 13
35 14 39 10 344 164 375 188 5 4 40 27 76 50 236 149 375 289 466 469 15 29
28 58 29 63 1 6 8 24 15 40 6 17 13 35 14 40 19 86 28 137 30 171 1 23 4 45 7
50 13 25 -8 277 -32 374 -6 25 -13 55 -16 68 -10 47 -56 158 -91 222 -60 107
-153 217 -227 267 -22 15 -43 31 -46 35 -8 10 -133 68 -147 68 -7 0 -13 4 -13
10 0 5 -3 9 -7 8 -5 -1 -33 4 -63 12 -30 7 -64 15 -75 16 -11 1 -20 3 -20 4 0
13 -348 20 -487 10 -38 -3 -68 -7 -68 -10 0 -3 -15 -5 -33 -6 -48 -1 -156 -19
-237 -38 -14 -3 -38 -8 -55 -11 -16 -2 -61 -11 -99 -19 -38 -8 -73 -13 -78
-10 -4 3 -8 1 -8 -4 0 -5 -6 -9 -12 -9 -25 -1 -113 -15 -120 -19 -3 -2 -28 -7
-55 -10 -26 -3 -57 -8 -67 -11 -11 -3 -34 -7 -50 -9 -17 -2 -42 -6 -56 -9 -14
-3 -47 -8 -75 -11 -53 -7 -80 -12 -80 -14 0 -1 -13 -3 -30 -5 -16 -2 -48 -7
-70 -10 -22 -4 -53 -8 -70 -10 -16 -2 -48 -6 -70 -9 -348 -44 -748 -53 -995
-22 -19 3 -55 7 -80 10 -25 3 -56 7 -70 10 -14 2 -47 8 -75 12 -27 4 -54 8
-60 9 -22 5 -131 28 -145 30 -8 2 -15 4 -15 5 0 1 -7 3 -15 5 -8 1 -46 12 -85
23 -38 12 -73 22 -77 22 -4 0 -43 13 -85 29 -127 47 -293 131 -343 174 -11 9
-22 17 -25 17 -16 0 -175 153 -175 168 0 7 -4 12 -9 12 -11 0 -76 133 -86 175
-13 58 -20 116 -16 150 1 7 668 10 1979 11 1759 0 2148 4 2194 19 7 2 32 6 56
9 165 21 406 106 541 191 97 62 131 88 200 156 136 135 211 248 304 459 21 48
68 189 73 220 3 14 7 32 10 40 3 8 8 29 10 45 3 17 9 41 13 55 4 14 7 37 7 53
-1 15 1 27 4 27 3 0 7 15 8 33 1 18 4 43 7 55 13 70 20 215 19 427 0 263 -3
339 -15 372 -5 13 -4 25 2 28 5 4 7 11 4 16 -8 12 -12 36 -20 106 -5 49 -16
116 -39 243 -25 133 -109 434 -145 515 -9 20 -22 58 -22 62 0 2 -20 46 -44 98
-25 53 -45 102 -45 110 0 7 -5 15 -11 17 -5 2 -11 10 -12 18 -2 8 -6 21 -11
28 -5 8 -26 47 -47 88 -51 98 -62 116 -76 131 -6 7 -15 23 -19 35 -3 12 -15
31 -25 42 -11 11 -19 25 -19 32 0 7 -3 14 -7 16 -5 2 -35 43 -67 91 -32 49
-65 94 -72 102 -8 7 -14 18 -14 23 0 6 -4 12 -9 14 -4 2 -36 38 -70 80 -60 74
-225 254 -265 287 -10 9 -35 32 -56 51 -60 57 -102 93 -155 135 -27 22 -55 45
-61 50 -6 6 -22 18 -35 27 -13 10 -49 36 -79 58 -30 22 -60 43 -66 48 -5 5
-21 15 -35 22 -13 7 -26 16 -29 20 -3 3 -52 34 -110 69 -58 34 -112 66 -120
72 -8 5 -28 16 -45 23 -16 8 -34 18 -38 23 -5 4 -12 8 -15 9 -4 0 -61 27 -127
58 -113 55 -185 88 -230 107 -99 40 -213 81 -236 86 -16 3 -32 10 -35 14 -3 5
-15 9 -28 9 -12 0 -26 3 -30 8 -4 4 -12 8 -17 8 -5 1 -10 2 -11 4 -2 1 -10 3
-18 5 -8 2 -49 14 -90 26 -89 25 -304 76 -375 89 -27 5 -59 11 -70 13 -11 3
-42 8 -70 12 -27 4 -61 9 -75 12 -14 2 -43 6 -65 8 -22 2 -40 4 -40 5 0 2 -56
8 -220 25 -59 6 -722 15 -727 10z"/>
<path d="M1257 14523 c-2 -1 -25 -4 -53 -7 -27 -2 -76 -9 -109 -15 -33 -6 -73
-13 -88 -15 -58 -10 -232 -68 -305 -103 -204 -95 -362 -239 -475 -433 -27 -47
-95 -185 -98 -198 0 -4 -8 -23 -16 -42 -17 -39 -51 -151 -59 -190 -3 -14 -7
-32 -9 -40 -3 -8 -7 -33 -11 -55 -3 -22 -8 -51 -10 -65 -19 -112 -26 -467 -12
-580 15 -115 19 -146 25 -170 9 -39 10 -43 17 -80 8 -51 42 -180 55 -212 6
-16 7 -28 4 -28 -4 0 -2 -5 5 -12 7 -7 12 -20 12 -30 0 -10 4 -26 10 -36 8
-15 67 -179 74 -207 2 -5 9 -23 16 -40 7 -16 14 -37 16 -45 2 -8 15 -49 29
-90 14 -41 28 -85 30 -97 3 -12 16 -53 29 -92 13 -38 21 -72 18 -75 -2 -3 0
-11 5 -18 6 -7 16 -38 23 -68 7 -30 15 -59 19 -65 3 -5 6 -14 7 -20 1 -5 18
-55 38 -110 90 -253 138 -391 140 -400 2 -5 6 -17 9 -25 3 -8 32 -91 63 -185
31 -93 58 -177 62 -185 3 -8 6 -18 7 -22 2 -5 4 -11 5 -15 1 -5 3 -12 4 -18 1
-5 5 -17 8 -25 4 -8 9 -24 11 -35 3 -11 15 -51 27 -90 21 -68 50 -170 54 -190
7 -34 39 -116 47 -120 5 -4 9 -14 9 -23 0 -21 85 -166 142 -241 96 -127 244
-250 410 -339 78 -43 251 -105 323 -117 22 -4 54 -9 70 -12 42 -7 312 -6 360
1 116 19 239 58 340 110 72 38 192 111 205 126 3 3 20 16 37 28 71 50 283 257
283 277 0 3 9 16 21 28 34 37 119 161 119 174 0 7 3 13 8 13 4 0 18 21 32 48
13 26 28 50 33 53 5 3 8 8 7 10 -1 2 19 48 44 102 25 55 46 100 46 102 0 2 5
16 12 32 6 15 12 33 14 38 1 6 10 28 19 49 9 22 19 47 21 55 2 9 15 52 28 96
14 47 21 86 16 95 -4 8 -10 33 -13 55 -2 22 -7 47 -11 55 -3 8 -8 26 -10 40
-5 24 -42 178 -51 210 -29 111 -76 288 -79 300 -3 12 -24 88 -31 110 -7 24
-17 59 -19 71 -2 8 -6 21 -9 29 -5 12 -82 271 -91 305 -10 38 -38 133 -43 145
-3 8 -7 20 -8 25 -2 6 -13 46 -25 90 -12 44 -23 88 -25 98 -2 10 -14 52 -25
95 -12 42 -24 86 -26 97 -10 42 -13 50 -14 50 -1 0 -3 7 -5 15 -1 8 -10 42
-19 75 -9 33 -19 68 -21 78 -2 10 -7 27 -10 37 -3 10 -8 27 -10 37 -2 10 -17
68 -33 128 -26 96 -38 140 -48 180 -16 63 -79 271 -93 310 -11 28 -23 59 -27
70 -4 11 -8 22 -8 25 -5 19 -46 116 -72 170 -17 36 -39 83 -50 105 -47 102
-182 312 -264 410 -55 66 -231 235 -245 235 -8 0 -15 5 -15 10 0 6 -7 10 -15
10 -8 0 -15 4 -15 8 0 12 -240 126 -257 122 -2 0 -4 0 -5 1 -8 2 -37 8 -68 13
-19 4 -42 9 -50 11 -50 14 -402 30 -413 18z"/>
<path d="M10407 14524 c-3 -3 -28 -8 -56 -10 -27 -2 -61 -8 -75 -14 -15 -5
-26 -8 -26 -5 0 2 -15 -1 -32 -6 -35 -11 -57 -16 -87 -23 -10 -3 -32 -11 -49
-20 -16 -8 -32 -12 -36 -9 -3 4 -6 1 -6 -5 0 -7 -7 -12 -15 -12 -9 0 -45 -18
-81 -40 -36 -22 -70 -40 -74 -40 -5 0 -10 -3 -12 -7 -1 -5 -24 -24 -49 -45
-43 -34 -123 -114 -169 -168 -12 -14 -30 -35 -41 -48 -10 -12 -19 -25 -19 -28
0 -3 -8 -13 -17 -22 -9 -9 -43 -57 -75 -107 -32 -49 -62 -95 -68 -102 -5 -7
-10 -19 -10 -27 0 -8 -5 -18 -10 -21 -14 -9 -122 -234 -157 -330 -17 -44 -34
-89 -38 -100 -5 -11 -9 -22 -10 -25 0 -3 -11 -35 -23 -71 -12 -36 -25 -74 -27
-85 -3 -10 -23 -86 -45 -169 -23 -82 -42 -154 -43 -160 -2 -5 -6 -16 -10 -22
-5 -7 -6 -13 -3 -13 2 0 -4 -33 -16 -72 -11 -40 -22 -83 -24 -95 -2 -12 -9
-34 -14 -48 -5 -14 -8 -25 -6 -25 2 0 -3 -21 -11 -47 -15 -51 -62 -226 -68
-256 -2 -10 -20 -78 -40 -150 -20 -73 -38 -139 -40 -147 -2 -8 -20 -78 -40
-155 -21 -77 -40 -152 -43 -167 -2 -16 -9 -28 -14 -28 -5 0 -7 -4 -4 -8 3 -5
-2 -33 -10 -63 -19 -68 -23 -84 -28 -108 -3 -11 -14 -54 -26 -96 -12 -42 -23
-87 -24 -98 -2 -12 -6 -29 -10 -37 -3 -8 -14 -49 -25 -90 -10 -41 -33 -129
-51 -195 -18 -66 -33 -127 -35 -135 -2 -8 -4 -15 -5 -15 -2 0 -7 -19 -15 -57
-3 -15 -10 -39 -15 -53 -5 -14 -7 -25 -4 -25 2 0 0 -9 -6 -19 -5 -11 -13 -36
-16 -57 -3 -20 -10 -48 -15 -61 -5 -13 -6 -23 -3 -23 4 0 2 -6 -4 -13 -6 -7
-13 -26 -16 -42 -2 -17 -5 -30 -6 -30 -1 0 -3 -7 -5 -15 -2 -8 -11 -44 -20
-80 -9 -36 -18 -72 -20 -80 -2 -8 -8 -27 -14 -42 -6 -16 -8 -28 -5 -28 4 0 1
-7 -6 -15 -7 -8 -10 -15 -6 -15 3 0 1 -11 -4 -26 -6 -14 -12 -37 -15 -52 -3
-15 -8 -40 -13 -55 -7 -27 -9 -25 -26 35 -10 34 -20 70 -23 78 -4 8 -7 20 -8
25 0 6 -4 17 -7 25 -5 13 -30 102 -34 123 -1 4 -3 10 -4 15 -2 4 -4 12 -5 17
-1 6 -7 23 -13 38 -7 16 -12 32 -12 37 0 5 -6 29 -14 52 -17 54 -87 294 -90
310 -2 7 -5 20 -8 28 -3 8 -13 40 -22 70 -8 30 -23 82 -33 115 -20 69 -17 61
-27 100 -4 17 -12 39 -17 50 -5 11 -10 29 -12 40 -3 19 -23 88 -53 184 -7 24
-11 47 -8 52 3 5 1 9 -5 9 -5 0 -12 15 -16 33 -4 17 -18 69 -31 114 -14 45
-27 90 -29 100 -2 10 -14 50 -25 88 -12 39 -25 84 -29 100 -8 29 -36 126 -68
228 -8 26 -16 53 -17 60 -2 12 -23 84 -54 182 -8 28 -15 51 -14 52 1 3 -27
103 -35 123 -8 19 -13 40 -15 63 -1 9 -6 17 -10 17 -4 0 -8 7 -8 16 0 9 -10
49 -21 88 -12 39 -23 78 -24 86 -2 8 -4 16 -5 18 -2 1 -3 5 -4 10 -9 33 -28
100 -32 112 -3 8 -5 15 -4 15 0 0 -8 25 -18 55 -11 30 -20 60 -21 65 -4 27
-79 272 -98 320 -94 239 -126 310 -203 450 -32 58 -127 205 -139 215 -3 3 -19
22 -35 43 -37 50 -173 186 -222 223 -22 16 -41 32 -44 35 -22 28 -310 169
-310 152 0 -3 -7 1 -17 8 -9 8 -19 13 -22 12 -3 -1 -22 2 -41 7 -20 5 -54 12
-75 14 -22 3 -51 7 -65 10 -30 7 -240 8 -290 2 -40 -5 -83 -13 -120 -22 -14
-3 -41 -9 -60 -14 -111 -27 -245 -94 -390 -197 -67 -48 -202 -191 -297 -318
-111 -146 -278 -490 -347 -715 -10 -30 -21 -64 -26 -75 -9 -21 -41 -129 -46
-155 -2 -8 -10 -37 -18 -65 -17 -57 -51 -177 -71 -250 -8 -27 -24 -84 -36
-125 -13 -41 -23 -79 -25 -85 -3 -15 -31 -113 -48 -170 -8 -27 -25 -86 -37
-130 -13 -44 -27 -82 -31 -83 -5 -2 -6 -7 -3 -12 3 -5 -6 -44 -19 -87 -13 -43
-36 -118 -51 -168 -15 -49 -29 -97 -32 -105 -3 -8 -7 -19 -8 -25 -1 -5 -3 -12
-4 -15 -2 -3 -4 -13 -6 -22 -2 -10 -13 -48 -24 -85 -12 -38 -23 -77 -26 -88
-2 -11 -16 -58 -30 -105 -14 -47 -28 -92 -30 -100 -2 -8 -29 -100 -60 -205
-30 -104 -57 -197 -59 -205 -3 -8 -14 -49 -26 -90 -12 -41 -26 -88 -30 -105
-5 -16 -20 -70 -35 -120 -14 -49 -28 -97 -30 -105 -2 -8 -4 -16 -5 -17 -2 -2
-4 -7 -5 -13 -1 -5 -3 -11 -5 -12 -1 -2 -3 -10 -5 -18 -1 -8 -9 -35 -16 -60
-7 -25 -13 -49 -14 -55 0 -5 -3 -14 -6 -20 -4 -5 -9 -23 -13 -40 -11 -49 -68
-229 -76 -240 -4 -5 -13 -26 -20 -45 -15 -42 -103 -223 -111 -230 -3 -3 -16
-23 -29 -45 -25 -43 -72 -109 -107 -153 -13 -15 -23 -31 -23 -35 0 -5 -4 -5
-10 -2 -5 3 -10 1 -10 -5 0 -15 -126 -141 -195 -195 -27 -22 -52 -42 -55 -45
-5 -5 -85 -57 -155 -102 -94 -59 -363 -173 -440 -187 -5 -1 -26 -6 -45 -11
-19 -5 -51 -11 -70 -14 -19 -3 -46 -8 -60 -11 -89 -19 -393 -26 -465 -11 -16
4 -48 9 -70 12 -44 6 -77 12 -115 21 -14 3 -32 6 -40 7 -8 1 -22 5 -30 8 -8 3
-53 18 -100 33 -107 34 -246 95 -310 136 -55 35 -57 32 -34 -35 11 -33 23 -68
26 -76 3 -8 10 -31 17 -50 7 -19 14 -45 17 -57 6 -32 140 -434 224 -673 39
-113 73 -212 75 -220 2 -8 4 -16 5 -17 2 -2 3 -6 5 -10 1 -5 5 -15 8 -23 4 -8
29 -82 57 -164 27 -81 56 -162 65 -179 8 -16 15 -36 15 -44 0 -21 152 -333
162 -333 4 0 8 -5 8 -11 0 -9 27 -51 125 -197 6 -9 17 -23 25 -31 8 -9 29 -34
45 -55 42 -53 220 -226 234 -226 3 0 20 -13 36 -28 133 -122 485 -273 720
-308 16 -2 37 -6 45 -9 23 -7 129 -18 182 -19 27 -1 48 -3 48 -6 0 -11 381 0
495 15 50 6 68 9 135 21 19 4 44 8 55 9 11 2 20 4 20 5 0 1 11 4 25 6 35 6
191 53 215 64 20 10 76 32 85 35 15 4 131 67 163 89 21 14 42 26 47 26 4 0 10
3 12 8 2 4 26 25 53 47 67 53 118 100 174 159 25 27 61 64 79 82 17 19 32 36
32 39 0 2 27 40 60 83 33 44 60 84 60 90 0 5 7 12 15 16 8 3 15 15 15 26 0 11
3 20 8 20 4 0 21 26 37 58 17 31 33 59 38 60 4 2 7 8 7 13 0 5 16 42 35 83 19
41 35 79 35 85 0 5 4 11 10 13 5 2 11 12 13 23 2 11 13 41 25 67 11 25 29 70
39 100 10 29 20 55 23 58 5 4 104 296 105 310 1 3 9 32 19 65 21 70 42 148 67
245 6 25 13 52 17 60 3 8 6 22 7 31 1 9 10 47 19 86 10 38 19 78 21 89 2 10 4
19 5 19 1 0 3 9 5 20 4 20 31 131 41 170 3 11 7 31 9 45 2 14 25 102 50 195
25 94 48 178 50 188 11 41 15 55 30 107 9 30 18 62 20 70 8 33 56 196 70 236
8 24 16 53 19 66 2 13 11 42 19 65 9 22 13 44 10 47 -4 3 -2 6 3 6 5 0 10 8
11 18 1 9 13 49 26 87 19 55 26 66 32 50 4 -11 11 -29 15 -40 5 -11 27 -78 50
-150 22 -71 44 -137 47 -145 3 -8 8 -24 10 -35 1 -11 7 -29 12 -40 12 -24 63
-192 68 -220 2 -11 7 -29 13 -40 5 -11 16 -47 25 -80 9 -33 21 -76 26 -95 5
-19 12 -44 14 -56 3 -12 11 -40 20 -63 8 -23 14 -43 15 -46 0 -3 0 -6 1 -7 0
-2 2 -10 4 -18 9 -38 15 -59 30 -115 16 -58 21 -77 29 -112 2 -10 11 -45 19
-77 9 -33 14 -63 11 -68 -3 -4 -1 -8 4 -8 5 0 9 -6 9 -12 1 -14 7 -44 23 -103
6 -22 13 -51 16 -65 2 -14 9 -39 15 -56 5 -17 11 -40 14 -50 2 -10 12 -49 23
-86 11 -37 17 -70 14 -73 -3 -3 -1 -5 5 -5 5 0 10 -6 10 -12 0 -14 78 -269 93
-305 24 -55 29 -70 41 -108 7 -22 14 -42 14 -45 1 -3 6 -16 12 -30 6 -14 22
-53 36 -88 78 -190 167 -368 242 -482 17 -25 35 -51 42 -58 7 -7 20 -26 30
-42 9 -17 21 -30 25 -30 4 0 8 -4 8 -9 0 -29 289 -311 318 -311 6 0 12 -4 14
-8 12 -30 239 -148 348 -181 19 -6 55 -17 80 -25 59 -19 194 -47 245 -52 22
-2 51 -5 65 -8 14 -3 59 -8 100 -11 41 -3 90 -7 108 -8 17 -2 32 0 32 5 0 4
10 4 23 0 27 -10 209 -8 225 2 7 4 12 2 12 -4 0 -6 5 -8 12 -4 7 4 33 9 58 11
64 4 125 11 125 13 0 1 11 3 25 5 14 2 41 6 60 9 98 14 313 78 383 113 15 7
27 10 27 6 0 -5 4 -3 8 2 4 6 42 29 86 50 115 58 116 59 116 67 0 5 5 8 12 8
35 0 275 208 363 315 22 27 48 57 57 67 10 10 15 18 12 18 -3 0 1 7 10 15 33
34 132 194 197 321 37 74 68 135 68 137 -3 13 16 57 24 57 6 0 7 3 4 7 -4 3
-2 12 4 20 6 7 8 13 4 13 -4 0 -3 6 2 13 6 6 18 39 28 72 10 33 22 65 25 70 4
6 11 26 15 45 4 19 11 40 15 45 4 6 11 24 15 40 10 34 10 35 18 55 6 17 30 91
33 103 1 4 3 9 4 12 1 3 3 8 5 13 1 4 5 14 8 22 5 13 49 146 52 160 1 3 5 14
9 25 31 80 39 103 42 124 3 13 9 31 13 40 5 9 10 21 11 26 1 6 6 20 11 33 5
13 9 27 9 31 0 4 25 83 56 177 30 93 57 174 58 179 1 6 19 62 40 125 21 63 39
120 40 125 3 14 26 86 33 105 4 8 7 17 8 20 0 3 9 30 20 60 19 56 20 60 29 97
2 12 9 30 14 40 6 10 10 20 10 23 1 3 3 12 6 20 3 8 19 60 36 115 17 55 34
107 37 115 3 8 7 17 8 20 0 3 14 46 30 95 16 50 29 92 30 95 0 3 8 28 18 55 9
28 17 52 17 55 0 3 15 45 35 95 19 49 35 96 35 103 0 7 4 20 10 30 5 9 19 44
29 77 11 33 34 98 51 145 16 47 30 86 30 87 1 5 10 33 17 51 3 9 7 20 8 25 2
4 4 9 5 12 1 3 4 10 5 15 1 6 3 11 5 13 1 1 3 9 5 17 2 8 36 110 75 225 39
116 73 217 75 225 2 8 14 51 28 95 29 90 40 128 42 135 1 3 4 12 8 20 7 19 28
87 31 103 2 7 6 20 9 30 4 9 10 25 14 35 3 9 7 24 9 33 2 9 8 27 13 40 5 13 9
27 10 31 1 4 8 23 17 43 8 19 14 37 14 40 0 3 3 12 5 20 3 8 7 22 10 30 2 8 5
17 5 20 0 3 11 34 25 70 13 36 25 67 25 70 1 8 11 38 27 80 8 22 17 51 19 64
3 13 12 37 20 52 8 16 14 30 13 31 -3 8 15 65 24 76 5 6 6 12 2 12 -4 0 -2 7
5 15 7 8 10 15 7 15 -4 0 0 19 9 41 8 23 16 51 19 63 2 12 9 39 15 61 17 65
20 79 25 105 2 14 9 43 14 65 5 22 12 60 15 85 2 25 5 45 6 45 0 0 3 27 6 60
11 141 3 327 -20 463 -17 96 -19 105 -45 222 -39 178 -155 501 -190 530 -3 3
-18 21 -33 41 -62 84 -206 202 -290 240 -16 7 -28 16 -28 21 0 4 -3 7 -7 6 -9
-1 -26 5 -103 40 -30 13 -59 25 -65 26 -5 2 -49 15 -97 30 -90 28 -238 59
-343 72 -89 10 -305 12 -311 2 -3 -5 -11 -4 -18 1 -7 6 -15 8 -19 5z"/>
</g>
</svg>
