<svg version="1.1" id="레이어_1" xmlns="http://www.w3.org/2000/svg" x="0" y="0" viewBox="0 0 800 279" style="enable-background:new 0 0 800 279" xml:space="preserve"><style>.st1{fill:#fff}</style><path style="fill:#0d1117" d="M0 0h800v279H0z"/><path class="st1" d="M110.28 127.03c.16-2.11.79-3.98 1.89-5.6 1.1-1.62 2.82-2.68 5.18-3.17 3.57-.65 6.29.02 8.16 2.01 1.87 1.99 3.25 4.73 4.14 8.22l1.83 7.06c.57 1.87 1.1 3.74 1.58 5.6.49 1.87.81 3.25.97 4.14-.33 1.22-.77 2.42-1.34 3.59-.57 1.18-1.28 2.23-2.13 3.17-.85.93-1.83 1.71-2.92 2.31-1.1.61-2.33.91-3.71.91-1.71 0-3.29-.51-4.75-1.52s-2.52-2.41-3.17-4.2a80.24 80.24 0 0 0-1.46-4.87c-.57-1.71-1.1-3.25-1.58-4.63-.24-.89-.49-1.75-.73-2.56s-.53-1.66-.85-2.56c-.99-2.66-1.36-5.3-1.11-7.9zm7.79 28.99c1.95 1.22 4.06 1.83 6.33 1.83 2.35 0 4.57-.71 6.64-2.13 2.07-1.42 3.55-3.47 4.45-6.15l3.41-12.06c.81-2.76 1.66-5.8 2.56-9.13 1.95-6.74 5.16-10.11 9.62-10.11 4.55 0 7.75 3.37 9.62 10.11l6.21 21.92 5.6-21.8c.89-3.49 2.27-6.23 4.14-8.22 1.87-1.99 4.59-2.66 8.16-2.01 3.33.73 5.36 2.19 6.09 4.38.73 2.11 1.14 4.06 1.22 5.85.08 1.79-.33 3.94-1.22 6.46l-1.46 4.51c-.41 1.38-.89 2.94-1.46 4.69-.57 1.75-1.18 3.55-1.83 5.42-.65 2.03-1.28 4.02-1.89 5.97-.61 1.95-1.16 3.7-1.64 5.24l-1.71 5.24c-2.11 6.5-6.33 9.74-12.67 9.74-3.25 0-5.75-.67-7.49-2.01-1.75-1.34-3.13-3.19-4.14-5.54-1.02-2.35-1.89-5.12-2.62-8.28-.73-3.17-1.71-6.58-2.92-10.23-1.14 3.65-2.05 7.06-2.74 10.23-.69 3.17-1.56 5.93-2.62 8.28-1.06 2.36-2.48 4.2-4.26 5.54-1.79 1.34-4.3 2.01-7.55 2.01-6.25 0-10.43-3.25-12.54-9.74l-1.46-4.38c-.41-1.14-.77-2.25-1.1-3.35-.32-1.13-.57-1.88-.73-2.28zM202.48 125.81c2.27-2.68 5.26-4.87 8.95-6.58 3.69-1.71 8.1-2.56 13.21-2.56 3.98 0 7.67.63 11.08 1.89 3.41 1.26 6.35 3.03 8.83 5.3 2.48 2.27 4.4 4.99 5.79 8.16 1.38 3.17 2.07 6.66 2.07 10.47 0 8.36-3.57 12.54-10.72 12.54h-26.43c0 1.22.43 2.23 1.28 3.04.85.81 1.89 1.44 3.11 1.89 1.22.45 2.48.77 3.78.97 1.3.2 2.39.3 3.29.3 1.87 0 3.73-.14 5.6-.43 1.87-.28 3.57-.59 5.12-.91 1.05-.24 1.97-.41 2.74-.49.77-.08 1.44-.12 2.01-.12 2.27 0 3.96.69 5.05 2.07 1.1 1.38 1.64 3.13 1.64 5.24 0 2.27-.91 4.12-2.74 5.54s-3.98 2.52-6.46 3.29-5.04 1.3-7.67 1.58c-2.64.28-4.77.43-6.39.43-4.55 0-8.95-.75-13.21-2.25-4.26-1.5-7.73-3.92-10.41-7.25-2.11-2.68-3.27-5.72-3.47-9.13-.2-3.41.63-6.54 2.5-9.38 1.62-2.52 3.84-4.53 6.64-6.03s6.07-2.25 9.8-2.25h16.44c0-2.19-.75-4.1-2.25-5.72s-3.84-2.52-7-2.68c-2.92-.16-5.99.22-9.2 1.16-3.21.93-6.17 2.4-8.89 4.38-2.72 1.99-5.04 4.51-6.94 7.55-1.91 3.04-3.03 6.6-3.35 10.66-1.38-5.2-1.6-10.51-.67-15.96.92-5.42 3.21-10.34 6.87-14.72zM259.72 103.64c0-3.41.73-6.27 2.19-8.59 1.46-2.31 4.1-3.47 7.92-3.47 3.73 0 6.35 1.18 7.86 3.53 1.5 2.36 2.25 5.2 2.25 8.53v52.13c-2.84-.41-5.48-1.14-7.92-2.19-2.44-1.05-4.57-2.45-6.39-4.2a19.225 19.225 0 0 1-4.32-6.15c-1.06-2.35-1.58-5.03-1.58-8.04v-31.55zm0 51.04v-10.96c.81 3.82 2.33 6.8 4.57 8.95 2.23 2.15 4.57 3.76 7 4.81 2.44 1.06 4.69 1.69 6.76 1.89 2.07.2 3.39.3 3.96.3 1.87 0 3.23.73 4.08 2.18s1.28 3.1 1.28 4.96c0 3.14-1.24 5.5-3.71 7.07-2.48 1.57-5.3 2.36-8.46 2.36-3.09 0-5.62-.54-7.61-1.63-1.99-1.09-3.57-2.6-4.75-4.54-1.18-1.93-1.99-4.21-2.44-6.83-.46-2.62-.68-5.48-.68-8.56zM330.73 138.96c2.27.33 4.36 1.02 6.27 2.07 1.91 1.06 3.57 2.38 4.99 3.96 1.42 1.58 2.54 3.41 3.35 5.48.81 2.07 1.22 4.24 1.22 6.52v6.7c0 2.36-.3 4.3-.91 5.85-.61 1.54-1.42 2.78-2.44 3.71-1.02.93-2.13 1.58-3.35 1.95-1.22.37-2.44.55-3.65.55-2.36 0-4.43-.49-6.21-1.46-1.79-.97-3-2.64-3.65-4.99v-.24c-2.84 5.36-8.2 8.04-16.08 8.04-4.87 0-8.97-1.18-12.3-3.53l-1.83-1.58c-1.46-1.46-2.68-3.31-3.65-5.54-.97-2.23-1.52-4.61-1.64-7.13-.12-2.52.24-5.01 1.1-7.49.85-2.48 2.42-4.73 4.69-6.76 2.27-2.03 5.3-3.67 9.07-4.93 3.78-1.26 8.5-1.89 14.19-1.89 3.15-.02 6.77.23 10.83.71zm-34.35-16.44c.89-1.05 2.31-1.97 4.26-2.74 1.95-.77 4.04-1.4 6.27-1.89 2.23-.49 4.45-.83 6.64-1.04 2.19-.2 3.98-.3 5.36-.3 4.71 0 8.83.43 12.36 1.28s6.5 2.46 8.89 4.81c2.39 2.36 4.16 5.64 5.3 9.87 1.14 4.22 1.62 9.66 1.46 16.32-1.06-3.65-2.94-6.53-5.66-8.65a28.174 28.174 0 0 0-9.07-4.69c-3.33-1.01-6.66-1.58-9.99-1.71-3.33-.12-6.13-.06-8.4.18-1.63.16-3.19.33-4.69.49-1.5.16-2.94.24-4.32.24-2.36 0-4.37-.34-6.03-1.04-1.67-.69-2.78-2.05-3.35-4.08-.33-1.38-.47-2.6-.43-3.65.04-1.04.51-2.18 1.4-3.4zm20.58 38.98c3.17 0 5.48-.85 6.94-2.56.81-.89 1.38-1.71 1.71-2.44.32-.73.53-1.44.61-2.13.08-.69.1-1.32.06-1.89a8.16 8.16 0 0 1 .06-1.71c-1.54-.16-3.21-.22-4.99-.18-1.79.04-3.43.26-4.93.67-1.5.41-2.76 1.06-3.78 1.95-1.02.89-1.52 2.11-1.52 3.65 0 3.1 1.95 4.64 5.84 4.64zM364.58 118.26c.89 0 1.46.04 1.71.12 2.92.41 5.05 1.64 6.39 3.71s2.01 4.81 2.01 8.22v19.73c0 3.25.65 5.85 1.95 7.79 1.3 1.95 3.57 2.92 6.82 2.92.97 0 1.95-.12 2.92-.37-.41 1.95-1 3.82-1.77 5.6-.77 1.79-1.79 3.39-3.04 4.81a13.786 13.786 0 0 1-4.45 3.35c-1.71.81-3.65 1.22-5.85 1.22-3.17 0-5.81-.83-7.92-2.5-2.11-1.66-3.84-3.78-5.18-6.33-1.34-2.56-2.29-5.3-2.86-8.22-.57-2.92-.85-5.68-.85-8.28V130.3c0-3.65.77-6.58 2.31-8.77 1.56-2.17 4.16-3.27 7.81-3.27zm27.65 31.79v-19.73c0-3.65.77-6.58 2.31-8.77 1.54-2.19 4.14-3.29 7.79-3.29 1.87 0 3.45.33 4.75.97 1.3.65 2.33 1.52 3.11 2.62.77 1.1 1.34 2.38 1.71 3.84s.55 3 .55 4.63v33.37c0 3.65-.77 6.58-2.31 8.77-1.54 2.19-4.14 3.29-7.79 3.29-5.04 0-8.2-2.31-9.5-6.94-1.38 3-3.55 5.18-6.52 6.52-2.96 1.34-6.39 2.01-10.29 2.01 2.68-.97 4.95-2.25 6.82-3.84 1.87-1.58 3.39-3.29 4.57-5.12 1.18-1.83 2.09-3.69 2.74-5.6.65-1.91 1.14-3.71 1.46-5.42.32-1.71.51-3.21.55-4.51.03-1.3.05-2.23.05-2.8zM419.76 163.69v-33.37c0-3.41.77-6.27 2.31-8.59 1.54-2.31 4.14-3.47 7.79-3.47 1.95 0 3.55.39 4.81 1.16 1.26.77 2.25 1.77 2.98 2.98.73 1.22 1.28 2.64 1.64 4.26.37 1.63.59 3.29.67 4.99v32.03c0 3.9-.85 6.86-2.56 8.89-.81 1.14-1.95 1.95-3.41 2.44-1.46.49-2.84.73-4.14.73-3.65 0-6.25-1.16-7.79-3.47-1.53-2.31-2.3-5.17-2.3-8.58zm22.16-42.39c1.62-1.62 3.53-2.8 5.72-3.53s4.38-1.1 6.58-1.1c4.14 0 7.69.71 10.66 2.13 2.96 1.42 5.4 3.35 7.31 5.79 1.91 2.44 3.31 5.32 4.2 8.65.89 3.33 1.34 6.9 1.34 10.72v19.73c0 3.41-.77 6.27-2.31 8.59-1.54 2.31-4.14 3.47-7.79 3.47-3.74 0-6.35-1.18-7.86-3.53-1.5-2.35-2.25-5.2-2.25-8.53v-19.73c0-3-.63-5.54-1.89-7.61-1.26-2.07-3.55-3.11-6.88-3.11-1.54 0-3.04.33-4.51.97-.24.08-.45.16-.61.24-.16.08-.33.16-.49.24.16-2.03.16-4.24 0-6.64-.16-2.38-.57-4.63-1.22-6.75zM485.65 147.12c0-4.55.61-8.69 1.83-12.42 1.22-3.73 2.98-6.94 5.3-9.62 2.31-2.68 5.2-4.75 8.65-6.21s7.45-2.19 12-2.19c3.41 0 6.58.69 9.5 2.06s5.32 3.51 7.19 6.41v-21.76c0-3.65.77-6.56 2.31-8.75 1.54-2.19 4.14-3.28 7.79-3.28 3.65 0 6.25 1.09 7.79 3.28 1.54 2.19 2.31 5.1 2.31 8.74v60.2c0 3.65-.77 6.6-2.31 8.83-1.54 2.23-4.14 3.35-7.79 3.35-3.41 0-5.97-1.05-7.67-3.17-.97-1.3-1.64-3.29-2.01-5.97-.37-2.68-.57-5.42-.61-8.22-.04-2.8-.02-5.3.06-7.49.08-2.19.12-3.49.12-3.9 0-3.98-1.04-7.27-3.11-9.87-2.07-2.6-5.05-3.9-8.95-3.9s-6.9 1.31-9.01 3.91c-2.11 2.61-3.17 5.91-3.17 9.91 0 2.37.34 4.42 1.04 6.18.69 1.75 1.62 3.2 2.8 4.34 1.18 1.14 2.5 2 3.96 2.57 1.46.57 2.92.86 4.38.86 2.19 0 4.18-.53 5.97-1.58.41 2.6.95 5.04 1.64 7.31.69 2.27 1.44 4.02 2.25 5.24-1.87 1.63-4.18 2.92-6.94 3.9-2.76.97-5.68 1.46-8.77 1.46-3.17 0-6.31-.55-9.44-1.64-3.13-1.1-5.97-2.84-8.53-5.24-2.56-2.39-4.63-5.5-6.21-9.32-1.58-3.82-2.37-8.49-2.37-14.02zM567.73 118.26c2.35 0 4.26.51 5.72 1.52 1.46 1.02 2.64 2.54 3.53 4.57 1.3-2.6 3.27-4.53 5.91-5.79 2.64-1.26 5.34-1.89 8.1-1.89 2.92 0 5.44.57 7.55 1.71 2.11 1.14 3.17 3.17 3.17 6.09 0 1.71-.39 3.29-1.16 4.75-.77 1.46-1.89 2.56-3.35 3.29-1.63.73-3.29 1.04-4.99.91a76.5 76.5 0 0 0-5.36-.18c-1.71 0-3.21.37-4.51 1.1-1.14.65-2.17 1.73-3.11 3.23-.93 1.5-1.4 3.8-1.4 6.88-1.71-.49-3.41-.73-5.12-.73-3.17 0-6.15.83-8.95 2.5-2.8 1.67-4.85 4.2-6.15 7.61v-23.51c0-3.65.77-6.58 2.31-8.77 1.56-2.19 4.16-3.29 7.81-3.29zm-10.1 43.6c0-2.11.41-4.04 1.22-5.79s1.91-3.25 3.29-4.51c1.38-1.26 2.96-2.23 4.75-2.92s3.69-1.04 5.72-1.04 3.78.29 5.24.85v15.22c0 3.65-.77 6.58-2.31 8.77-1.54 2.19-4.14 3.29-7.79 3.29-3.65 0-6.25-1.16-7.79-3.47-1.54-2.31-2.31-5.18-2.31-8.59v-1.81zM609.14 118.87c1.3-.49 2.52-.73 3.65-.73 2.35 0 4.34.96 5.97 2.86 1.62 1.91 2.92 4.28 3.9 7.13l8.04 23.26c1.87 4.87 3.31 9.93 4.32 15.16 1.01 5.24 1.44 10.41 1.28 15.53-.16 2.44-.55 4.85-1.16 7.25a24.26 24.26 0 0 1-2.86 6.76c-1.71 2.92-3.84 5.13-6.39 6.64-2.56 1.5-6.11 2.25-10.66 2.25-1.79 0-3.45-.22-4.99-.67-1.54-.45-2.84-1.12-3.9-2.01a7.234 7.234 0 0 1-2.25-3.35c-.45-1.34-.51-2.9-.18-4.69.32-1.71.97-2.96 1.95-3.78.97-.81 2.01-1.38 3.11-1.71 1.1-.33 2.15-.49 3.17-.49 1.01 0 1.77-.04 2.25-.12 1.87-.41 3.19-1.6 3.96-3.59.77-1.99 1.72-4.69 2.86-8.1l-16.08-40.07c-.73-1.71-1.26-3.47-1.58-5.3-.33-1.83-.35-3.53-.06-5.12.28-1.58.87-3 1.77-4.26.88-1.25 2.18-2.2 3.88-2.85zm23.87 27.16 3.53-10.35 2.68-7.55c.97-2.84 2.29-5.24 3.96-7.19 1.66-1.95 3.71-2.88 6.15-2.8 1.05 0 2.19.24 3.41.73 1.71.65 3.02 1.6 3.96 2.86a9.59 9.59 0 0 1 1.77 4.26c.24 1.58.2 3.29-.12 5.12-.33 1.83-.85 3.59-1.58 5.3l-8.28 20.58-10.23 25.46c.32-2.76.45-5.72.37-8.89-.08-3.17-.37-6.33-.85-9.5s-1.14-6.29-1.95-9.38c-.83-3.09-1.76-5.97-2.82-8.65zM686.29 77h-27c-1.93 0-3.5 1.57-3.5 3.5s1.57 3.5 3.5 3.5h23.5v23.5c0 1.93 1.57 3.5 3.5 3.5s3.5-1.57 3.5-3.5v-27c0-1.93-1.56-3.5-3.5-3.5z"/></svg>