<svg version="1.1" id="레이어_1" xmlns="http://www.w3.org/2000/svg" x="0" y="0" viewBox="0 0 800 279" style="enable-background:new 0 0 800 279" xml:space="preserve"><style>.st1{fill:#fff}</style><path style="fill:#121212" d="M0 0h800v279H0z"/><path class="st1" d="M125.28 128.86c.16-2.06.79-3.88 1.89-5.47 1.1-1.58 2.82-2.62 5.18-3.09 3.57-.63 6.29.02 8.16 1.96s3.25 4.62 4.14 8.03l1.83 6.9c.57 1.83 1.1 3.65 1.58 5.47.49 1.83.81 3.17.97 4.04-.33 1.19-.77 2.36-1.34 3.51a12.87 12.87 0 0 1-2.13 3.09c-.85.91-1.83 1.67-2.92 2.26-1.1.6-2.34.89-3.72.89-1.71 0-3.29-.49-4.75-1.49-1.46-.99-2.52-2.36-3.17-4.1-.41-1.51-.89-3.09-1.46-4.76s-1.1-3.17-1.58-4.52c-.24-.87-.49-1.7-.73-2.5-.24-.79-.53-1.62-.85-2.5-.98-2.61-1.35-5.19-1.1-7.72zm7.8 28.3c1.95 1.19 4.06 1.78 6.34 1.78 2.36 0 4.57-.69 6.64-2.08 2.07-1.39 3.55-3.39 4.45-6.01l3.41-11.78c.81-2.69 1.66-5.67 2.56-8.92 1.95-6.58 5.16-9.87 9.63-9.87 4.55 0 7.76 3.29 9.63 9.87l6.21 21.41 5.6-21.29c.89-3.41 2.27-6.08 4.14-8.03 1.87-1.94 4.59-2.6 8.16-1.96 3.33.71 5.36 2.14 6.09 4.28.73 2.06 1.14 3.97 1.22 5.71.08 1.75-.33 3.85-1.22 6.3l-1.46 4.4c-.41 1.35-.89 2.88-1.46 4.58-.57 1.71-1.18 3.47-1.83 5.29-.65 1.98-1.28 3.92-1.89 5.83-.61 1.9-1.16 3.61-1.65 5.11l-1.71 5.11c-2.11 6.34-6.34 9.51-12.67 9.51-3.25 0-5.75-.65-7.49-1.96-1.75-1.31-3.13-3.11-4.14-5.41-1.02-2.3-1.89-5-2.62-8.09-.73-3.09-1.71-6.42-2.92-9.99-1.14 3.57-2.05 6.9-2.74 9.99-.69 3.09-1.57 5.79-2.62 8.09-1.06 2.3-2.48 4.1-4.26 5.41-1.79 1.31-4.31 1.96-7.55 1.96-6.26 0-10.44-3.17-12.55-9.51l-1.46-4.28c-.41-1.11-.77-2.2-1.1-3.27-.34-1.05-.58-1.78-.74-2.18zM217.51 127.67c2.27-2.62 5.26-4.76 8.96-6.42 3.69-1.67 8.1-2.5 13.22-2.5 3.98 0 7.68.62 11.09 1.84 3.41 1.23 6.35 2.95 8.83 5.17 2.48 2.22 4.4 4.88 5.79 7.97 1.38 3.09 2.07 6.5 2.07 10.23 0 8.17-3.58 12.25-10.72 12.25H230.3c0 1.19.43 2.18 1.28 2.97.85.79 1.89 1.41 3.11 1.84 1.22.44 2.48.75 3.78.95 1.3.2 2.4.3 3.29.3 1.87 0 3.73-.14 5.6-.42 1.87-.28 3.57-.57 5.12-.89 1.05-.24 1.97-.4 2.74-.48.77-.08 1.44-.12 2.01-.12 2.27 0 3.96.68 5.06 2.02 1.1 1.35 1.64 3.05 1.64 5.11 0 2.22-.91 4.03-2.74 5.41-1.83 1.39-3.98 2.46-6.46 3.21s-5.04 1.27-7.68 1.55c-2.64.28-4.77.42-6.4.42-4.55 0-8.96-.73-13.22-2.2-4.26-1.47-7.74-3.83-10.42-7.08-2.11-2.62-3.27-5.59-3.47-8.92-.2-3.33.63-6.38 2.5-9.16 1.62-2.46 3.84-4.42 6.64-5.89 2.8-1.47 6.07-2.2 9.81-2.2h16.45c0-2.14-.75-4-2.25-5.59-1.5-1.59-3.84-2.46-7.01-2.62-2.92-.16-5.99.22-9.2 1.13-3.21.91-6.17 2.34-8.89 4.28-2.72 1.94-5.04 4.4-6.94 7.37-1.91 2.97-3.03 6.44-3.35 10.41-1.38-5.07-1.6-10.27-.67-15.58.93-5.28 3.22-10.08 6.88-14.36zM274.77 106.02c0-3.33.73-6.13 2.19-8.39 1.46-2.26 4.1-3.39 7.92-3.39 3.73 0 6.35 1.15 7.86 3.45 1.5 2.3 2.25 5.08 2.25 8.33v50.91c-2.84-.4-5.48-1.11-7.92-2.14-2.44-1.03-4.57-2.4-6.4-4.1a18.75 18.75 0 0 1-4.32-6.01c-1.06-2.3-1.58-4.92-1.58-7.85v-30.81zm0 49.83v-10.7c.81 3.73 2.33 6.64 4.57 8.74 2.23 2.1 4.57 3.67 7.01 4.7 2.44 1.03 4.69 1.65 6.76 1.84 2.07.2 3.39.3 3.96.3 1.87 0 3.23.71 4.08 2.13s1.28 3.03 1.28 4.84c0 3.07-1.24 5.37-3.72 6.91-2.48 1.54-5.3 2.3-8.47 2.3-3.09 0-5.63-.53-7.61-1.59-1.99-1.06-3.58-2.54-4.75-4.43-1.18-1.89-1.99-4.11-2.44-6.67-.44-2.56-.67-5.35-.67-8.37zM345.8 140.51c2.27.32 4.36.99 6.27 2.02 1.91 1.03 3.57 2.32 5 3.87 1.42 1.55 2.54 3.33 3.35 5.35.81 2.02 1.22 4.14 1.22 6.36v6.54c0 2.3-.3 4.2-.91 5.71-.61 1.51-1.42 2.72-2.44 3.63-1.02.91-2.13 1.55-3.35 1.9-1.22.36-2.44.54-3.65.54-2.36 0-4.43-.48-6.21-1.43-1.79-.95-3.01-2.58-3.65-4.88v-.24c-2.84 5.23-8.21 7.85-16.08 7.85-4.87 0-8.98-1.15-12.31-3.45l-1.83-1.55c-1.46-1.43-2.68-3.23-3.66-5.41-.97-2.18-1.52-4.5-1.64-6.96-.12-2.46.24-4.9 1.1-7.31.85-2.42 2.42-4.62 4.69-6.6 2.27-1.98 5.3-3.59 9.08-4.82 3.78-1.23 8.51-1.84 14.19-1.84 3.16.01 6.77.25 10.83.72zm-34.35-16.06c.89-1.03 2.32-1.92 4.26-2.68 1.95-.75 4.04-1.37 6.27-1.84 2.23-.48 4.45-.81 6.64-1.01 2.19-.2 3.98-.3 5.36-.3 4.71 0 8.83.42 12.37 1.25 3.53.83 6.5 2.4 8.89 4.7 2.4 2.3 4.16 5.51 5.3 9.63 1.14 4.12 1.62 9.44 1.46 15.94-1.06-3.57-2.95-6.38-5.67-8.44a28.256 28.256 0 0 0-9.08-4.58c-3.33-.99-6.66-1.55-9.99-1.67-3.33-.12-6.13-.06-8.41.18-1.63.16-3.19.32-4.69.48-1.5.16-2.94.24-4.32.24-2.36 0-4.37-.34-6.03-1.01-1.67-.67-2.78-2-3.35-3.98-.33-1.35-.47-2.54-.43-3.57.06-1.03.52-2.15 1.42-3.34zm20.59 38.07c3.17 0 5.48-.83 6.94-2.5.81-.87 1.38-1.67 1.71-2.38.32-.71.53-1.41.61-2.08.08-.67.1-1.29.06-1.84-.04-.55-.02-1.11.06-1.67-1.54-.16-3.21-.22-5-.18-1.79.04-3.43.26-4.93.65-1.5.4-2.76 1.03-3.78 1.9-1.02.87-1.52 2.06-1.52 3.57 0 3.02 1.95 4.53 5.85 4.53zM379.67 120.29c.89 0 1.46.04 1.71.12 2.92.4 5.06 1.61 6.4 3.63 1.34 2.02 2.01 4.7 2.01 8.03v19.27c0 3.17.65 5.71 1.95 7.61 1.3 1.9 3.57 2.85 6.82 2.85.97 0 1.95-.12 2.92-.36-.41 1.9-1 3.73-1.77 5.47-.77 1.74-1.79 3.31-3.05 4.7a13.695 13.695 0 0 1-4.45 3.27c-1.71.79-3.66 1.19-5.85 1.19-3.17 0-5.81-.81-7.92-2.44-2.11-1.62-3.84-3.69-5.18-6.18-1.34-2.5-2.3-5.17-2.86-8.03-.57-2.85-.85-5.55-.85-8.09v-19.27c0-3.57.77-6.42 2.31-8.56 1.56-2.14 4.16-3.21 7.81-3.21zm27.66 31.05v-19.27c0-3.57.77-6.42 2.32-8.56 1.54-2.14 4.14-3.21 7.8-3.21 1.87 0 3.45.32 4.75.95 1.3.64 2.33 1.49 3.11 2.56.77 1.07 1.34 2.32 1.71 3.75.37 1.43.55 2.93.55 4.52v32.59c0 3.57-.77 6.42-2.32 8.56-1.54 2.14-4.14 3.21-7.8 3.21-5.04 0-8.2-2.26-9.5-6.78-1.38 2.93-3.55 5.06-6.52 6.36-2.97 1.31-6.4 1.96-10.3 1.96 2.68-.95 4.95-2.2 6.82-3.75 1.87-1.55 3.39-3.21 4.57-5 1.18-1.78 2.09-3.61 2.74-5.47.65-1.86 1.14-3.63 1.46-5.29.32-1.67.51-3.13.55-4.4.04-1.27.06-2.18.06-2.73zM434.87 164.66v-32.59c0-3.33.77-6.13 2.31-8.39 1.54-2.26 4.14-3.39 7.8-3.39 1.95 0 3.55.38 4.81 1.13 1.26.75 2.25 1.72 2.99 2.91.73 1.19 1.28 2.58 1.65 4.16.37 1.59.59 3.21.67 4.88v31.28c0 3.81-.85 6.7-2.56 8.68-.81 1.11-1.95 1.9-3.41 2.38-1.46.48-2.84.71-4.14.71-3.65 0-6.26-1.13-7.8-3.39-1.55-2.25-2.32-5.04-2.32-8.37zm22.17-41.39c1.62-1.59 3.53-2.74 5.73-3.45 2.19-.71 4.39-1.07 6.58-1.07 4.14 0 7.69.7 10.66 2.08 2.96 1.39 5.4 3.27 7.31 5.65 1.91 2.38 3.31 5.19 4.2 8.44.89 3.25 1.34 6.74 1.34 10.47v19.27c0 3.33-.77 6.13-2.32 8.39-1.54 2.26-4.14 3.39-7.8 3.39-3.74 0-6.36-1.15-7.86-3.45-1.5-2.3-2.25-5.07-2.25-8.33v-19.27c0-2.93-.63-5.41-1.89-7.43-1.26-2.02-3.55-3.03-6.88-3.03-1.54 0-3.05.32-4.51.95-.24.08-.45.16-.61.24-.16.08-.33.16-.49.24.16-1.98.16-4.14 0-6.48-.16-2.35-.56-4.55-1.21-6.61zM500.78 148.48c0-4.44.61-8.48 1.83-12.13 1.22-3.65 2.98-6.78 5.3-9.4s5.2-4.64 8.65-6.07c3.45-1.43 7.45-2.14 12-2.14 3.41 0 6.58.67 9.5 2.01 2.92 1.34 5.32 3.43 7.19 6.26v-21.25c0-3.56.77-6.41 2.32-8.55 1.54-2.14 4.14-3.21 7.8-3.21s6.25 1.07 7.8 3.2c1.54 2.14 2.32 4.98 2.32 8.54v58.79c0 3.57-.77 6.44-2.32 8.62-1.54 2.18-4.14 3.27-7.8 3.27-3.41 0-5.97-1.03-7.68-3.09-.97-1.27-1.64-3.21-2.01-5.83a63.99 63.99 0 0 1-.61-8.03c-.04-2.74-.02-5.17.06-7.31.08-2.14.12-3.41.12-3.81 0-3.88-1.04-7.1-3.11-9.63-2.07-2.54-5.06-3.81-8.96-3.81s-6.9 1.28-9.02 3.82c-2.11 2.55-3.17 5.77-3.17 9.68 0 2.31.34 4.32 1.04 6.03.69 1.71 1.62 3.13 2.8 4.24 1.18 1.12 2.5 1.95 3.96 2.51 1.46.56 2.92.84 4.39.84 2.19 0 4.18-.51 5.97-1.55.41 2.54.95 4.92 1.65 7.14.69 2.22 1.44 3.93 2.25 5.11-1.87 1.59-4.18 2.85-6.94 3.81-2.76.95-5.69 1.43-8.77 1.43-3.17 0-6.32-.54-9.44-1.61-3.13-1.07-5.97-2.78-8.53-5.11-2.56-2.34-4.63-5.37-6.21-9.1-1.59-3.72-2.38-8.28-2.38-13.67zM582.9 120.29c2.36 0 4.26.5 5.73 1.49 1.46.99 2.64 2.48 3.53 4.46 1.3-2.54 3.27-4.42 5.91-5.65 2.64-1.23 5.34-1.84 8.1-1.84 2.92 0 5.44.56 7.55 1.67 2.11 1.11 3.17 3.09 3.17 5.95 0 1.67-.39 3.21-1.16 4.64a7.382 7.382 0 0 1-3.35 3.21c-1.63.71-3.29 1.01-5 .89a76.5 76.5 0 0 0-5.36-.18c-1.71 0-3.21.36-4.51 1.07-1.14.64-2.17 1.69-3.11 3.15-.93 1.47-1.4 3.71-1.4 6.72a18.82 18.82 0 0 0-5.12-.71c-3.17 0-6.15.81-8.95 2.44-2.8 1.63-4.85 4.1-6.15 7.43v-22.96c0-3.57.77-6.42 2.31-8.56 1.55-2.15 4.15-3.22 7.81-3.22zm-10.12 42.58c0-2.06.41-3.94 1.22-5.65.81-1.7 1.91-3.17 3.29-4.4 1.38-1.23 2.96-2.18 4.75-2.86 1.79-.67 3.69-1.01 5.73-1.01 2.03 0 3.78.28 5.24.83v14.87c0 3.57-.77 6.42-2.32 8.56-1.54 2.14-4.14 3.21-7.8 3.21-3.65 0-6.26-1.13-7.8-3.39-1.54-2.26-2.31-5.06-2.31-8.39v-1.77zM624.32 120.89c1.3-.48 2.52-.71 3.66-.71 2.35 0 4.34.93 5.97 2.8 1.62 1.86 2.92 4.18 3.9 6.96l8.04 22.72c1.87 4.76 3.31 9.69 4.33 14.81 1.01 5.11 1.44 10.17 1.28 15.16-.16 2.38-.55 4.74-1.16 7.08-.61 2.34-1.57 4.54-2.86 6.6-1.71 2.85-3.84 5.01-6.4 6.48-2.56 1.47-6.11 2.2-10.66 2.2-1.79 0-3.45-.22-4.99-.65-1.54-.44-2.84-1.09-3.9-1.96a7.051 7.051 0 0 1-2.25-3.27c-.45-1.31-.51-2.84-.18-4.58.32-1.67.97-2.9 1.95-3.69.97-.79 2.01-1.35 3.11-1.67 1.1-.32 2.15-.48 3.17-.48 1.01 0 1.77-.04 2.25-.12 1.87-.4 3.19-1.57 3.96-3.51.77-1.94 1.73-4.58 2.86-7.91l-16.08-39.13c-.73-1.67-1.26-3.39-1.58-5.17-.33-1.78-.35-3.45-.06-5 .28-1.55.87-2.93 1.77-4.16.86-1.24 2.16-2.17 3.87-2.8zm23.88 26.52 3.53-10.11 2.68-7.37c.97-2.77 2.29-5.11 3.96-7.02 1.66-1.9 3.72-2.81 6.15-2.74 1.05 0 2.19.24 3.41.71 1.71.64 3.03 1.57 3.96 2.8a9.26 9.26 0 0 1 1.77 4.16c.24 1.55.2 3.21-.12 5-.33 1.78-.85 3.51-1.58 5.17l-8.29 20.1-10.23 24.86c.32-2.7.45-5.59.37-8.68a72.91 72.91 0 0 0-.85-9.28c-.49-3.09-1.14-6.14-1.95-9.16a77.27 77.27 0 0 0-2.81-8.44z"/></svg>